<svg xmlns="http://www.w3.org/2000/svg" width="268" height="40" viewBox="0 0 268 40">
    <g data-name="그룹 13248">
        <g data-name="그룹 13248">
            <path data-name="패스 1" d="M324.779 294.108c-.532-4.845 4.544-8.732 11.338-8.678s12.737 4.021 13.269 8.86-4.54 8.728-11.337 8.674-12.737-4.017-13.27-8.856m25.871 1.5c-.613-6.007-7.452-10.927-15.272-10.992s-13.665 4.754-13.05 10.758 7.451 10.926 15.272 10.996 13.667-4.753 13.05-10.76" transform="translate(-308.609 -273.658)" style="fill:#f7bb82"/>
            <path data-name="패스 2" d="M338.259 309.035c-3.852 4.03-10.036 4.361-13.811.747s-3.711-9.8.145-13.828 10.038-4.358 13.81-.747 3.71 9.806-.144 13.828m-14.273-13.208c-4.479 4.676-4.55 11.874-.164 16.075s11.576 3.81 16.051-.869 4.554-11.876.166-16.075-11.574-3.811-16.052.869" transform="translate(-308.025 -276.205)" style="fill:#f4a051"/>
            <path data-name="패스 3" d="M318.369 273.2c8.013-3 15.935.035 17.7 6.783s-3.306 14.659-11.317 17.659-15.937-.034-17.7-6.783 3.307-14.654 11.319-17.66m-7.442 2.581c-8.313 6.581-10.428 16.12-4.728 21.3s17.063 4.046 25.377-2.535 10.43-16.116 4.728-21.3-17.065-4.049-25.377 2.533" transform="translate(-301.998 -268.646)" style="fill:#ed7100"/>
        </g>
        <g data-name="그룹 13249">
            <path data-name="패스 4" d="M387.376 287.469v14.8h-2.319v-7.806h-8.772v7.806h-2.319v-14.8h2.319v4.966h8.772v-4.966z" transform="translate(-326.328 -274.636)" style="fill:#fff"/>
            <path data-name="패스 5" d="M400.994 304.185a3.557 3.557 0 0 1-2.57-.908 3.063 3.063 0 0 1-.966-2.338v-.792a3.086 3.086 0 0 1 .966-2.357 3.509 3.509 0 0 1 2.57-.927h6.047v-.063q0-1.777-1.951-1.777h-6.724v-1.971h6.685a4.411 4.411 0 0 1 3.188 1.063 3.827 3.827 0 0 1 1.121 2.975v3.922a2.952 2.952 0 0 1-1.025 2.376 3.9 3.9 0 0 1-2.608.793zm4.232-5.352h-3.672q-1.777 0-1.777 1.508v.367q0 1.488 1.777 1.488h3.672q1.816 0 1.816-1.488v-.367q-.001-1.509-1.817-1.508z" transform="translate(-334.381 -276.552)" style="fill:#fff"/>
            <path data-name="패스 6" d="M423.479 293.056h2.279a4.553 4.553 0 0 1 3.4 1.256 4.771 4.771 0 0 1 1.237 3.5v6.376h-2.319v-6.26a3.11 3.11 0 0 0-.541-2.029 2.373 2.373 0 0 0-1.952-.831h-1.97a2.385 2.385 0 0 0-1.933.831 3.287 3.287 0 0 0-.5 2.029v6.26h-2.319v-6.376a4.771 4.771 0 0 1 1.236-3.5 4.529 4.529 0 0 1 3.382-1.256z" transform="translate(-341.719 -276.552)" style="fill:#fff"/>
            <path data-name="패스 7" d="M448.155 302.7a3.843 3.843 0 0 1-3.072 1.487h-1.43a4.007 4.007 0 0 1-3.072-1.217 4.5 4.5 0 0 1-1.082-3.227v-6.685h2.3v6.7a2.549 2.549 0 0 0 .522 1.778 2.047 2.047 0 0 0 1.565.638h1a2.072 2.072 0 0 0 1.584-.638 2.49 2.49 0 0 0 .542-1.778v-6.7h2.279v6.7a2.549 2.549 0 0 0 .522 1.778 2.049 2.049 0 0 0 1.565.638h1a2.074 2.074 0 0 0 1.585-.638 2.493 2.493 0 0 0 .541-1.778v-6.7h2.3v6.685a4.411 4.411 0 0 1-1.121 3.227 4.034 4.034 0 0 1-3.091 1.217h-1.411a3.8 3.8 0 0 1-3.026-1.487z" transform="translate(-348.794 -276.552)" style="fill:#fff"/>
            <path data-name="패스 8" d="M473.712 293.13a2.385 2.385 0 0 0-1.932.831 3.282 3.282 0 0 0-.5 2.029v6.26h-2.318v-14.839h2.318v4.389a4.019 4.019 0 0 1 2.3-.676h2.28a4.554 4.554 0 0 1 3.4 1.256 4.771 4.771 0 0 1 1.237 3.5v6.376h-2.319v-6.26a3.107 3.107 0 0 0-.541-2.029 2.372 2.372 0 0 0-1.952-.831z" transform="translate(-358.893 -274.617)" style="fill:#fff"/>
            <path data-name="패스 9" d="M492.957 304.185a3.557 3.557 0 0 1-2.57-.908 3.061 3.061 0 0 1-.966-2.338v-.792a3.084 3.084 0 0 1 .966-2.357 3.509 3.509 0 0 1 2.57-.927H499v-.063q0-1.777-1.951-1.777h-6.724v-1.971h6.685a4.411 4.411 0 0 1 3.188 1.063 3.827 3.827 0 0 1 1.12 2.975v3.922a2.952 2.952 0 0 1-1.024 2.376 3.9 3.9 0 0 1-2.608.793zm4.231-5.352h-3.671q-1.777 0-1.777 1.508v.367q0 1.488 1.777 1.488h3.671q1.817 0 1.816-1.488v-.367q-.004-1.509-1.817-1.508z" transform="translate(-365.908 -276.552)" style="fill:#fff"/>
            <path data-name="패스 10" d="M526.441 287.38a1.418 1.418 0 0 1 .754.214 1.817 1.817 0 0 1 .618.714l7.053 13.931h-2.55l-1.874-3.729h-7.96l-1.873 3.729h-2.55l7.052-13.931a1.813 1.813 0 0 1 .618-.714 1.349 1.349 0 0 1 .712-.214zm2.995 9.139-2.975-5.932-2.976 5.932z" transform="translate(-375.725 -274.606)" style="fill:#fff"/>
            <path data-name="패스 11" d="M556.83 296.341v.772a3.034 3.034 0 0 1-.986 2.338 3.558 3.558 0 0 1-2.57.908h-6.028v.077q0 1.759 1.952 1.759h7.11v1.99h-7.091a4.5 4.5 0 0 1-3.187-1.044 3.837 3.837 0 0 1-1.1-2.956v-3.844a3.088 3.088 0 0 1 .965-2.357 3.54 3.54 0 0 1 2.589-.927h4.772a3.539 3.539 0 0 1 2.589.927 3.058 3.058 0 0 1 .985 2.357zm-7.806 2.048h3.69q1.8 0 1.8-1.488v-.367q0-1.508-1.8-1.507h-3.69q-1.778 0-1.778 1.507v.367q0 1.488 1.778 1.487z" transform="translate(-384.937 -276.552)" style="fill:#fff"/>
            <path data-name="패스 12" d="M566.036 296.534a3.291 3.291 0 0 1 1.063-2.589 4.382 4.382 0 0 1 3.034-.889h4.289v2.009h-4.134q-1.913 0-1.913 1.758v7.362h-2.338z" transform="translate(-392.174 -276.552)" style="fill:#fff"/>
            <path data-name="패스 13" d="M588.963 304.185h-3.419a4.117 4.117 0 0 1-4.425-4.521V297.6a4.119 4.119 0 0 1 4.425-4.541h3.419a4.121 4.121 0 0 1 4.444 4.541v2.067a4.119 4.119 0 0 1-4.444 4.521zm-.174-2.009a2.147 2.147 0 0 0 1.816-.754 3.072 3.072 0 0 0 .483-1.874v-1.816a3.108 3.108 0 0 0-.483-1.893 2.124 2.124 0 0 0-1.816-.773H585.7a2.1 2.1 0 0 0-1.8.773 3.2 3.2 0 0 0-.465 1.893v1.816a3.164 3.164 0 0 0 .465 1.874 2.123 2.123 0 0 0 1.8.754z" transform="translate(-397.344 -276.552)" style="fill:#fff"/>
            <path data-name="패스 14" d="M610.349 297.634a5.058 5.058 0 0 1 2.744.58 2.566 2.566 0 0 1 1.1 2.3v.831a2.548 2.548 0 0 1-1.1 2.28 5.259 5.259 0 0 1-2.763.56h-7.381v-2.009h7.381q1.525 0 1.526-1.044v-.444q0-1.063-1.526-1.063h-3.83a5.146 5.146 0 0 1-2.724-.561 2.562 2.562 0 0 1-1.082-2.28v-.849a2.552 2.552 0 0 1 1.082-2.3 5.008 5.008 0 0 1 2.724-.58h7.071v2.009h-7.032q-1.507 0-1.507 1.063v.464q0 1.043 1.488 1.043z" transform="translate(-404.742 -276.552)" style="fill:#fff"/>
            <path data-name="패스 15" d="M623.042 297.6a4.119 4.119 0 0 1 4.425-4.541h3.033a4.145 4.145 0 0 1 4.444 4.541v2.067a4.141 4.141 0 0 1-4.425 4.521h-5.159v3.826h-2.319zm2.319.135v4.444h4.985a2.179 2.179 0 0 0 1.816-.754 3.165 3.165 0 0 0 .464-1.874v-1.816a3.2 3.2 0 0 0-.464-1.893 2.156 2.156 0 0 0-1.816-.773h-2.723a2.1 2.1 0 0 0-1.8.773 3.208 3.208 0 0 0-.463 1.889z" transform="translate(-411.716 -276.552)" style="fill:#fff"/>
            <path data-name="패스 16" d="M647.57 304.185a3.557 3.557 0 0 1-2.57-.908 3.061 3.061 0 0 1-.966-2.338v-.792a3.084 3.084 0 0 1 .966-2.357 3.51 3.51 0 0 1 2.57-.927h6.047v-.063q0-1.777-1.951-1.777h-6.724v-1.971h6.685a4.411 4.411 0 0 1 3.188 1.063 3.828 3.828 0 0 1 1.121 2.975v3.922a2.952 2.952 0 0 1-1.025 2.376 3.894 3.894 0 0 1-2.608.793zm4.232-5.352h-3.672q-1.778 0-1.777 1.508v.367q0 1.488 1.777 1.488h3.67q1.816 0 1.816-1.488v-.367q.001-1.509-1.816-1.508z" transform="translate(-418.913 -276.552)" style="fill:#fff"/>
            <path data-name="패스 17" d="M677.262 304.185h-7.4a4.115 4.115 0 0 1-4.424-4.521v-2.048a4.143 4.143 0 0 1 4.424-4.56h7.4v2.009h-7.207a2.178 2.178 0 0 0-1.836.773 3.315 3.315 0 0 0-.445 1.893v1.816a3.276 3.276 0 0 0 .445 1.874 2.2 2.2 0 0 0 1.836.754h7.207z" transform="translate(-426.251 -276.552)" style="fill:#fff"/>
            <path data-name="패스 18" d="M698.507 296.341v.772a3.034 3.034 0 0 1-.986 2.338 3.557 3.557 0 0 1-2.57.908h-6.028v.077q0 1.759 1.952 1.759h7.11v1.99h-7.091a4.5 4.5 0 0 1-3.188-1.044 3.839 3.839 0 0 1-1.1-2.956v-3.844a3.088 3.088 0 0 1 .966-2.357 3.54 3.54 0 0 1 2.589-.927h4.772a3.54 3.54 0 0 1 2.589.927 3.057 3.057 0 0 1 .985 2.357zm-7.806 2.048h3.69q1.8 0 1.8-1.488v-.367q0-1.508-1.8-1.507H690.7q-1.778 0-1.778 1.507v.367q.001 1.488 1.778 1.487z" transform="translate(-433.508 -276.552)" style="fill:#fff"/>
        </g>
    </g>
</svg>
