<svg xmlns="http://www.w3.org/2000/svg" width="20" height="20" viewBox="0 0 20 20">
    <g data-name="그룹 246">
        <path data-name="타원 5" d="M10 2.6a7.4 7.4 0 1 0 7.4 7.4A7.408 7.408 0 0 0 10 2.6M10 1a9 9 0 1 1-9 9 9 9 0 0 1 9-9z"/>
        <g data-name="그룹 179">
            <path data-name="타원 6" d="M10 2.6c-.54 0-1.211.671-1.751 1.752A13.15 13.15 0 0 0 7.1 10a13.15 13.15 0 0 0 1.149 5.648C8.789 16.729 9.46 17.4 10 17.4s1.211-.671 1.751-1.752A13.15 13.15 0 0 0 12.9 10a13.15 13.15 0 0 0-1.149-5.648C11.211 3.271 10.54 2.6 10 2.6M10 1c2.485 0 4.5 4.029 4.5 9s-2.015 9-4.5 9-4.5-4.029-4.5-9S7.515 1 10 1z"/>
            <path data-name="선 2" d="M18.354 10.801H1.646v-1.6h16.708z"/>
        </g>
    </g>
</svg>
