<svg xmlns="http://www.w3.org/2000/svg" width="24" height="24" viewBox="0 0 24 24">
    <path data-name="Icon awesome-youtube" fill="#000" d="M22.54 7.087a2.764 2.764 0 0 0-1.945-1.958C18.88 4.667 12 4.667 12 4.667s-6.88 0-8.6.463a2.764 2.764 0 0 0-1.94 1.957 29 29 0 0 0-.46 5.33 29 29 0 0 0 .46 5.33 2.723 2.723 0 0 0 1.945 1.926c1.716.463 8.6.463 8.6.463s6.88 0 8.6-.463a2.723 2.723 0 0 0 1.935-1.926 29 29 0 0 0 .46-5.33 29 29 0 0 0-.46-5.33zM9.75 15.688V9.146l5.75 3.271-5.75 3.271z"/>
</svg>
